<svg width="40" height="40" viewBox="0 0 40 40" fill="none" xmlns="http://www.w3.org/2000/svg">
<circle cx="20" cy="20" r="20" fill="white"/>
<path d="M30.4353 10.9304C30.427 10.9143 30.4132 10.9016 30.3964 10.8947C28.4513 10.0023 26.3987 9.36595 24.2899 9.00156C24.2707 8.998 24.251 9.00057 24.2333 9.0089C24.2157 9.01724 24.2012 9.03092 24.1918 9.04799C23.9123 9.55528 23.6586 10.0764 23.4316 10.6092C21.1584 10.2642 18.8462 10.2642 16.5731 10.6092C16.3446 10.075 16.0868 9.5538 15.8009 9.04799C15.7911 9.03129 15.7765 9.01793 15.759 9.00964C15.7415 9.00136 15.7219 8.99855 15.7027 9.00156C13.5937 9.36518 11.541 10.0016 9.59618 10.8948C9.57953 10.9018 9.56549 10.9139 9.55598 10.9293C5.66673 16.7374 4.60132 22.4026 5.12397 27.9977C5.12544 28.0115 5.12966 28.0247 5.13636 28.0368C5.14307 28.0488 5.15213 28.0594 5.163 28.0679C7.42768 29.7447 9.96074 31.0247 12.6541 31.8531C12.6731 31.8588 12.6933 31.8585 12.7121 31.8523C12.731 31.8462 12.7474 31.8344 12.7594 31.8186C13.3378 31.0315 13.8504 30.198 14.2919 29.3266C14.2979 29.3147 14.3014 29.3016 14.302 29.2882C14.3027 29.2748 14.3004 29.2614 14.2955 29.2489C14.2906 29.2365 14.2831 29.2252 14.2735 29.2158C14.2639 29.2064 14.2525 29.1992 14.2399 29.1946C13.4316 28.8853 12.6491 28.5125 11.8997 28.0796C11.886 28.0716 11.8746 28.0604 11.8664 28.0469C11.8581 28.0335 11.8533 28.0182 11.8524 28.0024C11.8515 27.9866 11.8544 27.9709 11.861 27.9565C11.8676 27.9422 11.8776 27.9297 11.8902 27.9201C12.0475 27.8023 12.2048 27.6798 12.355 27.556C12.3683 27.545 12.3845 27.538 12.4016 27.5357C12.4187 27.5334 12.4361 27.5359 12.4519 27.543C17.3616 29.7836 22.6769 29.7836 27.5285 27.543C27.5443 27.5354 27.5619 27.5326 27.5793 27.5347C27.5967 27.5368 27.6131 27.5438 27.6267 27.5548C27.7769 27.6786 27.9342 27.8023 28.0926 27.9201C28.1052 27.9296 28.1153 27.942 28.122 27.9563C28.1287 27.9706 28.1318 27.9863 28.131 28.0021C28.1302 28.0179 28.1255 28.0332 28.1174 28.0467C28.1092 28.0602 28.0979 28.0715 28.0843 28.0796C27.3366 28.5161 26.5534 28.8887 25.743 29.1934C25.7304 29.1982 25.719 29.2056 25.7094 29.2151C25.6999 29.2246 25.6925 29.236 25.6877 29.2486C25.6828 29.2612 25.6807 29.2746 25.6815 29.2881C25.6822 29.3015 25.6858 29.3147 25.692 29.3266C26.1408 30.1932 26.6526 31.0256 27.2233 31.8172C27.2349 31.8334 27.2513 31.8456 27.2702 31.852C27.289 31.8584 27.3095 31.8588 27.3285 31.8529C30.0267 31.0273 32.5642 29.7473 34.8317 28.0679C34.8428 28.0598 34.852 28.0495 34.8587 28.0376C34.8654 28.0257 34.8695 28.0125 34.8708 27.9989C35.4965 21.5304 33.8232 15.9115 30.4353 10.9304ZM15.0251 24.5909C13.5469 24.5909 12.3289 23.2344 12.3289 21.5685C12.3289 19.9026 13.5233 18.546 15.0251 18.546C16.5386 18.546 17.7448 19.9144 17.7212 21.5684C17.7212 23.2344 16.5268 24.5909 15.0251 24.5909ZM24.9935 24.5909C23.5154 24.5909 22.2974 23.2344 22.2974 21.5685C22.2974 19.9026 23.4917 18.546 24.9935 18.546C26.5071 18.546 27.7132 19.9144 27.6896 21.5684C27.6896 23.2344 26.5071 24.5909 24.9935 24.5909Z" fill="#101655"/>
</svg>
