<svg width="75" height="75" viewBox="0 0 75 75" fill="none" xmlns="http://www.w3.org/2000/svg">
<g filter="url(#filter0_dd_2498_2215)">
<path d="M54.3609 58.3759L59.3759 63.391C56.6667 65.5238 53.7556 67.2393 50.6429 68.5374C47.5301 69.8333 44.2732 70.6541 40.8722 71V64.0827C43.3509 63.7368 45.7293 63.0739 48.0074 62.094C50.2832 61.114 52.401 59.8747 54.3609 58.3759ZM72 39.9586C71.5388 43.3596 70.6742 46.6304 69.406 49.7708C68.1378 52.9136 66.4085 55.782 64.218 58.3759L59.3759 53.4474C60.8747 51.4875 62.0852 49.3685 63.0075 47.0904C63.9298 44.8146 64.5639 42.4373 64.9098 39.9586H72ZM64.218 14.6241C66.4085 17.218 68.1667 20.0853 69.4925 23.2257C70.8183 26.3685 71.6541 29.6404 72 33.0414H64.9098C64.5639 30.5627 63.9298 28.1843 63.0075 25.9062C62.0852 23.6304 60.8747 21.5125 59.3759 19.5526L64.218 14.6241ZM34.0414 2V8.91729C27.0664 9.89724 21.302 12.995 16.7481 18.2107C12.1942 23.4286 9.91729 29.5251 9.91729 36.5C9.91729 43.4749 12.1942 49.5702 16.7481 54.7859C21.302 60.0038 27.0376 63.1028 33.9549 64.0827V71C29.5739 70.5388 25.4962 69.3133 21.7217 67.3235C17.9448 65.3359 14.6729 62.8007 11.906 59.7179C9.1391 56.6328 6.96361 53.1015 5.37955 49.1241C3.79318 45.1466 3 40.9386 3 36.5C3 27.5652 5.95484 19.8259 11.8645 13.2821C17.7719 6.74065 25.1642 2.97995 34.0414 2ZM40.9586 2C44.3596 2.34586 47.6165 3.16672 50.7293 4.46256C53.8421 5.7607 56.7243 7.47619 59.3759 9.60902L54.5338 14.6241C52.5163 13.1253 50.3685 11.886 48.0904 10.906C45.8146 9.92606 43.4373 9.26316 40.9586 8.91729V2ZM37.4135 53.8797L20.0338 36.4135L24.9624 31.485L33.9549 40.4774V19.2932H40.8722V40.4774L49.7782 31.5714L54.7068 36.5865L37.4135 53.8797Z" fill="white"/>
</g>
<defs>
<filter id="filter0_dd_2498_2215" x="0" y="0" width="75" height="75" filterUnits="userSpaceOnUse" color-interpolation-filters="sRGB">
<feFlood flood-opacity="0" result="BackgroundImageFix"/>
<feColorMatrix in="SourceAlpha" type="matrix" values="0 0 0 0 0 0 0 0 0 0 0 0 0 0 0 0 0 0 127 0" result="hardAlpha"/>
<feOffset dy="1"/>
<feGaussianBlur stdDeviation="1.5"/>
<feComposite in2="hardAlpha" operator="out"/>
<feColorMatrix type="matrix" values="0 0 0 0 0.501961 0 0 0 0 0.145098 0 0 0 0 0.258824 0 0 0 0.15 0"/>
<feBlend mode="normal" in2="BackgroundImageFix" result="effect1_dropShadow_2498_2215"/>
<feColorMatrix in="SourceAlpha" type="matrix" values="0 0 0 0 0 0 0 0 0 0 0 0 0 0 0 0 0 0 127 0" result="hardAlpha"/>
<feOffset dy="1"/>
<feGaussianBlur stdDeviation="1"/>
<feComposite in2="hardAlpha" operator="out"/>
<feColorMatrix type="matrix" values="0 0 0 0 0.501961 0 0 0 0 0.145098 0 0 0 0 0.258824 0 0 0 0.3 0"/>
<feBlend mode="normal" in2="effect1_dropShadow_2498_2215" result="effect2_dropShadow_2498_2215"/>
<feBlend mode="normal" in="SourceGraphic" in2="effect2_dropShadow_2498_2215" result="shape"/>
</filter>
</defs>
</svg>
