<svg width="512" height="510" viewBox="0 0 512 510" fill="none" xmlns="http://www.w3.org/2000/svg">
<path d="M234.6 1.59956C197.9 8.89956 167.2 33.5996 152.4 67.8996C134.1 110.1 143.5 159.4 176.1 192.1L183.7 199.7L176.6 202.5C158.7 209.4 137.6 221.6 122.1 234C105.8 247 86.0998 268.3 77.8998 281.8C71.6998 292 73.3998 302.3 82.2998 309.4C85.8998 312.3 86.7998 312.5 93.7998 312.5C103.5 312.5 105.4 311.2 114.9 298.7C141.8 262.9 177 240.3 221 230.8C230.2 228.9 234.4 228.6 255 228.5C276 228.5 279.7 228.8 289.4 230.8C333 240.2 369.6 263.7 395.8 299.2C401.1 306.5 403.9 309.2 407.2 310.9C422.7 318.3 439.9 304 435 287.7C432.5 279.2 412.7 255.1 397.4 241.7C376.5 223.6 359.7 213.4 330.3 201C328.2 200.1 328.5 199.6 336 192C358.7 168.8 370.4 138.2 368.7 106.5C365.9 55.1996 329.1 12.4996 278.5 1.89956C267.7 -0.400444 245.2 -0.500444 234.6 1.59956ZM274.4 41.9996C305.8 49.9996 329 79.9995 329 112.5C329 145.3 306 175 274.2 183.1C264.9 185.4 248.4 185.6 239 183.5C228.7 181.1 215.5 174 207.3 166.5C168.6 131.2 177.5 70.2996 224.9 46.4996C238.1 39.8996 258.9 37.9996 274.4 41.9996Z" fill="white"/>
<path d="M248.2 281.5C245.7 283.6 244.2 287 239.9 299.8C231.6 325 231.2 325.8 227.7 327.7C225 329.2 220.7 329.6 201.4 330C180 330.5 178 330.7 176 332.5C170.9 337.1 169.6 344.2 172.8 349.5C173.8 351.2 182.1 357.9 191.3 364.5C200.4 371.1 208.6 377.7 209.4 379.1C212 383.5 211.3 387 204.4 407.5C196.8 429.7 196.7 431.8 202.6 436.9C205.4 439.4 206.9 440 210.8 440C216.1 440 215.9 440.1 237.5 424.6C256.8 410.7 255.1 410.6 278.4 427.2C295.3 439.4 296.4 440 301.1 440C305.1 440 306.5 439.5 309.4 436.9C315.3 431.8 315.2 429.7 307.6 407.5C300.9 387.7 300.1 384 302.1 379.6C302.8 378.2 310.8 371.7 320.3 364.9C337.4 352.5 341 348.8 341 343.7C341 340 338.8 334.9 336 332.5C334 330.7 332 330.5 310.6 330C291.3 329.6 287 329.2 284.3 327.7C280.8 325.8 280.4 325 272.1 299.8C265.9 281.3 264.2 279 256 279C252.3 279 250.5 279.6 248.2 281.5Z" fill="white"/>
<path d="M77.2001 351.5C74.7001 353.6 73.2001 357 68.9001 369.8C60.6001 395 60.2001 395.8 56.7001 397.7C54.0001 399.2 49.7001 399.6 30.4001 400C9.00006 400.5 7.00006 400.7 5.00006 402.5C-0.0999397 407.1 -1.39994 414.2 1.80006 419.5C2.80006 421.2 11.1001 427.9 20.3001 434.5C29.4001 441.1 37.6001 447.7 38.4001 449.1C41.0001 453.5 40.3001 457 33.4001 477.5C25.8001 499.7 25.7001 501.8 31.6001 506.9C34.4001 509.4 35.9001 510 39.8001 510C45.1001 510 44.9001 510.1 66.5001 494.6C85.8001 480.7 84.1001 480.6 107.4 497.2C124.3 509.4 125.4 510 130.1 510C134.1 510 135.5 509.5 138.4 506.9C144.3 501.8 144.2 499.7 136.6 477.5C129.9 457.7 129.1 454 131.1 449.6C131.8 448.2 139.8 441.7 149.3 434.9C166.4 422.5 170 418.8 170 413.7C170 410 167.8 404.9 165 402.5C163 400.7 161 400.5 139.6 400C120.3 399.6 116 399.2 113.3 397.7C109.8 395.8 109.4 395 101.1 369.8C94.9001 351.3 93.2001 349 85.0001 349C81.3001 349 79.5001 349.6 77.2001 351.5Z" fill="white"/>
<path d="M419.2 351.5C416.7 353.6 415.2 357 410.9 369.8C402.6 395 402.2 395.8 398.7 397.7C396 399.2 391.7 399.6 372.4 400C351 400.5 349 400.7 347 402.5C341.9 407.1 340.6 414.2 343.8 419.5C344.8 421.2 353.1 427.9 362.3 434.5C371.4 441.1 379.6 447.7 380.4 449.1C383 453.5 382.3 457 375.4 477.5C367.8 499.7 367.7 501.8 373.6 506.9C376.4 509.4 377.9 510 381.8 510C387.1 510 386.9 510.1 408.5 494.6C427.8 480.7 426.1 480.6 449.4 497.2C466.3 509.4 467.4 510 472.1 510C476.1 510 477.5 509.5 480.4 506.9C486.3 501.8 486.2 499.7 478.6 477.5C471.9 457.7 471.1 454 473.1 449.6C473.8 448.2 481.8 441.7 491.3 434.9C508.4 422.5 512 418.8 512 413.7C512 410 509.8 404.9 507 402.5C505 400.7 503 400.5 481.6 400C462.3 399.6 458 399.2 455.3 397.7C451.8 395.8 451.4 395 443.1 369.8C436.9 351.3 435.2 349 427 349C423.3 349 421.5 349.6 419.2 351.5Z" fill="white"/>
</svg>
