<svg width="40" height="40" viewBox="0 0 40 40" fill="none" xmlns="http://www.w3.org/2000/svg">
<path d="M20 0C31.044 0 40 8.956 40 20C40 31.044 31.044 40 20 40C8.956 40 0 31.044 0 20C0 8.956 8.956 0 20 0Z" fill="white"/>
<path d="M15.3598 30.1597C24.7918 30.1597 29.9558 22.3437 29.9558 15.5637C29.9558 15.3437 29.9558 15.1197 29.9398 14.8997C30.9438 14.1717 31.8118 13.2757 32.4998 12.2437C31.5638 12.6597 30.5718 12.9317 29.5558 13.0517C30.6278 12.4117 31.4278 11.4037 31.8118 10.2157C30.8038 10.8117 29.7038 11.2357 28.5558 11.4597C26.6118 9.39571 23.3638 9.29571 21.2998 11.2357C19.9678 12.4877 19.4038 14.3557 19.8158 16.1357C15.6918 15.9277 11.8478 13.9797 9.24381 10.7757C7.88381 13.1197 8.57581 16.1157 10.8318 17.6237C10.0158 17.5997 9.21581 17.3797 8.50381 16.9837C8.50381 17.0037 8.50381 17.0277 8.50381 17.0477C8.50381 19.4877 10.2238 21.5917 12.6198 22.0757C11.8638 22.2797 11.0718 22.3117 10.3038 22.1637C10.9758 24.2517 12.8998 25.6837 15.0958 25.7277C13.2798 27.1557 11.0358 27.9317 8.72781 27.9277C8.31981 27.9277 7.91181 27.9037 7.50781 27.8517C9.84381 29.3597 12.5758 30.1597 15.3598 30.1557" fill="#250850"/>
</svg>
