<svg width="77" height="77" viewBox="0 0 77 77" fill="none" xmlns="http://www.w3.org/2000/svg">
<g filter="url(#filter0_dd_2498_2218)">
<path d="M35.6064 3.25395C32.7199 4.08266 29.7536 6.67575 27.4657 10.3649C26.7075 11.5812 25.4039 14.2278 24.7521 15.8451C24.4595 16.5936 24.2333 17.2085 24.2599 17.2352C24.2865 17.2486 24.9649 17.3956 25.763 17.5426C28.7958 18.1441 32.1479 18.5317 35.5798 18.6921L36.87 18.7456V10.8728C36.87 3.45444 36.8567 2.99998 36.6439 3.01335C36.5109 3.01335 36.0453 3.12028 35.6064 3.25395Z" fill="white"/>
<path d="M39.2656 10.8728V18.7456L40.5692 18.6921C43.9878 18.5317 47.3398 18.1441 50.3726 17.5426C51.184 17.3956 51.8491 17.2486 51.8757 17.2352C51.9555 17.1684 50.785 14.3882 50.0268 12.8644C47.7788 8.37328 45.2115 5.44604 42.1255 3.89553C41.3141 3.48118 39.8376 2.99998 39.4119 2.99998C39.3055 2.99998 39.2656 5.21881 39.2656 10.8728Z" fill="white"/>
<path d="M28.1964 4.35009C24.4985 5.47287 20.6809 7.42436 17.5417 9.79021C16.1849 10.8328 13.6842 13.0917 13.6177 13.3457C13.6044 13.4259 13.8704 13.6264 14.2162 13.7868C14.5621 13.9472 15.4267 14.3214 16.1184 14.6289C17.8343 15.3907 21.6652 16.7274 21.785 16.5937C21.7983 16.5803 22.0377 15.9655 22.3037 15.2303C23.6871 11.5011 25.8154 8.02585 28.4891 5.11197C29.0876 4.47039 29.5532 3.93573 29.5266 3.9491C29.5 3.9491 28.9014 4.12286 28.1964 4.35009Z" fill="white"/>
<path d="M47.5241 4.97828C48.6947 6.24809 50.6234 8.80107 51.3817 10.0976C52.1399 11.4209 53.5099 14.3214 53.9622 15.5912C54.3879 16.8075 54.0819 16.7808 56.8221 15.8719C58.671 15.2437 62.5418 13.5996 62.5418 13.4258C62.5418 13.2253 59.8815 10.7793 58.6444 9.84365C55.3589 7.3575 51.2087 5.25897 47.5374 4.22976L46.5664 3.94906L47.5241 4.97828Z" fill="white"/>
<path d="M10.7862 16.6606C8.93728 19.1868 7.78003 21.2453 6.56957 24.119C5.25269 27.2735 4.36147 31.0963 4.09544 34.7721L4.01562 35.8815H6.59617H9.17672L9.26983 35.3735C9.56247 33.7428 11.172 31.7379 12.7948 30.976C14.0053 30.4012 14.7901 30.2676 16.9849 30.2676H18.887L18.9801 29.5592C19.4058 26.2042 19.9911 23.0364 20.6562 20.5235C20.869 19.6948 21.0419 18.9997 21.0153 18.973C20.9887 18.9596 20.2571 18.719 19.3792 18.4383C17.2642 17.7834 15.7611 17.1819 13.6062 16.1527C12.6219 15.6848 11.8238 15.2972 11.8105 15.2972C11.7972 15.2972 11.3316 15.9121 10.7862 16.6606Z" fill="white"/>
<path d="M63.4069 15.7249C61.7974 16.5804 59.3632 17.5829 57.2881 18.2646C56.1175 18.6388 55.1465 18.9596 55.1199 18.9863C55.0933 18.9997 55.2662 19.6948 55.479 20.5235C56.1441 23.0364 56.7294 26.2042 57.1551 29.5592L57.2482 30.2676H59.2168C61.4648 30.2676 62.263 30.4012 63.4335 30.9626C65.0563 31.7245 66.586 33.5691 66.9452 35.1731L67.1048 35.8815H69.6188H72.1196L72.0398 34.7721C71.5476 28.0889 69.3395 22.1141 65.349 16.6606C64.8036 15.9121 64.3114 15.2972 64.2715 15.2972C64.2316 15.3106 63.8459 15.4977 63.4069 15.7249Z" fill="white"/>
<path d="M23.2504 20.2696C22.4789 22.983 21.4414 28.4766 21.4414 29.8533V30.2677H29.1564H36.8715V25.7365V21.2053L35.1821 21.1251C31.4443 20.9246 28.2652 20.537 25.1127 19.8954C24.2481 19.7216 23.5165 19.5746 23.4899 19.5746C23.4766 19.5746 23.3702 19.8954 23.2504 20.2696Z" fill="white"/>
<path d="M51.5698 19.7884C48.7631 20.4167 44.6928 20.938 41.0348 21.1251L39.2656 21.2053V25.7365V30.2677H46.9807H54.6957V29.8533C54.6957 27.8751 52.9399 19.5478 52.5275 19.5879C52.4344 19.6013 52.0087 19.6815 51.5698 19.7884Z" fill="white"/>
<path d="M45.2118 33.2617C44.3738 33.5692 43.9348 34.1038 43.722 35.0395L43.6289 35.4806H44.5733C45.4379 35.4806 45.5045 35.4538 45.5444 35.1865C45.5976 34.7588 46.1961 34.4914 46.6351 34.6919C46.8213 34.7855 47.0076 34.9726 47.0608 35.1063C47.2603 35.7612 46.7681 36.2825 45.9168 36.2825C45.5178 36.2825 45.5178 36.2959 45.5178 37.0043V37.7127L46.1163 37.7929C46.4489 37.8197 46.8479 37.9667 46.981 38.087C47.5662 38.6083 47.114 39.6241 46.3159 39.6241C45.8636 39.6241 45.3847 39.2098 45.3847 38.8222C45.3847 38.5816 45.2916 38.5548 44.5201 38.5548H43.6555V38.9826C43.6555 39.6375 44.1743 40.4261 44.7862 40.7469C45.5976 41.1746 47.0076 41.2014 47.7658 40.8004C48.5373 40.3994 48.8698 39.9316 48.9363 39.1296C49.0161 38.3142 48.7235 37.5791 48.2047 37.2449L47.8057 37.0043L48.2446 36.5766C49.0294 35.8414 49.0294 34.5716 48.2579 33.7964C47.5795 33.1147 46.2893 32.8875 45.2118 33.2617Z" fill="white"/>
<path d="M55.0928 33.2349C54.3479 33.4488 53.8824 33.8765 53.5099 34.6651C53.1907 35.3468 53.1641 35.5607 53.1641 37.0978C53.1641 38.7018 53.1774 38.8087 53.5631 39.5573C54.1351 40.6667 54.7603 41.0008 56.2368 40.934C57.1679 40.8939 57.3674 40.8404 57.7798 40.533C59.3627 39.3167 59.4691 35.1062 57.9527 33.7562C57.2344 33.128 56.157 32.9275 55.0928 33.2349ZM56.8221 35.1463C57.1147 35.4538 57.1546 35.6409 57.1945 36.7904C57.2344 37.7662 57.1945 38.2206 57.0482 38.5949C56.6757 39.4771 55.5584 39.5973 55.1327 38.782C54.6406 37.8196 54.8135 35.427 55.3988 35.0127C55.8377 34.7052 56.4629 34.7587 56.8221 35.1463Z" fill="white"/>
<path d="M17.2358 33.8363C17.289 33.97 17.728 35.6542 18.2068 37.5789L19.0714 41.0943H20.1755H21.2795L21.8382 38.7819C22.1575 37.5255 22.4368 36.4294 22.4767 36.3626C22.5166 36.2958 22.8092 37.3383 23.1285 38.675L23.7271 41.0943H24.8178H25.9086L26.8264 37.5121C27.3186 35.5472 27.7575 33.8631 27.7974 33.7695C27.8373 33.6492 27.5979 33.6091 26.8663 33.6091H25.882L25.3765 36.2156C25.0972 37.6458 24.8444 38.822 24.8178 38.822C24.7646 38.822 24.6449 38.3542 24.033 35.7076L23.5408 33.5957L22.5299 33.6358L21.519 33.6759L20.8938 36.1888C20.5479 37.5789 20.242 38.7284 20.2154 38.7552C20.1888 38.7819 19.9361 37.6458 19.6567 36.2156L19.138 33.6091H18.1536C17.2624 33.6091 17.1693 33.6358 17.2358 33.8363Z" fill="white"/>
<path d="M28.7539 37.3517V41.0943H31.0152H33.2765V40.3591V39.624H31.9463H30.6162V38.7552V37.8864H31.8133H33.0105V37.218V36.5497H31.8133H30.6162V35.7477V34.9458H31.9463H33.2765V34.2774V33.6091H31.0152H28.7539V37.3517Z" fill="white"/>
<path d="M34.5032 37.3116L34.5431 41.0275L36.3388 41.0676C37.3231 41.0943 38.4405 41.0408 38.7996 40.9606C39.5179 40.8136 40.1298 40.3458 40.3426 39.7978C40.6619 38.9557 40.316 37.8329 39.6377 37.472C39.4647 37.3918 39.3184 37.2982 39.2918 37.2849C39.2652 37.2581 39.478 37.0309 39.7574 36.777C40.2229 36.3359 40.2628 36.2557 40.2628 35.574C40.2628 34.7052 39.9702 34.2106 39.2519 33.8497C38.8795 33.6492 38.4272 33.6091 36.6315 33.6091H34.4766L34.5032 37.3116ZM38.2144 35.2933C38.3474 35.4136 38.4671 35.6542 38.4671 35.8279C38.4671 36.3626 38.1346 36.5497 37.1901 36.5497H36.3388V35.7344V34.9057L37.1502 34.9859C37.6424 35.026 38.0547 35.1463 38.2144 35.2933ZM38.2011 38.0601C38.4538 38.1804 38.5469 38.3542 38.5735 38.7151C38.6267 39.3834 38.2676 39.624 37.1768 39.624H36.3388V38.7552V37.8864H37.1103C37.5227 37.8864 38.0148 37.9666 38.2011 38.0601Z" fill="white"/>
<path d="M4.07981 39.3836C4.50547 45.1177 6.2613 50.5445 9.2542 55.3297C10.0656 56.6396 11.7283 58.8718 11.888 58.8718C11.9412 58.8718 12.5264 58.6044 13.1649 58.2836C14.9873 57.3614 16.8229 56.6128 18.9645 55.9044C20.0686 55.5435 20.9731 55.2361 20.9997 55.2094C21.0263 55.196 20.8667 54.4876 20.6405 53.6455C19.9754 51.0792 19.4035 48.0049 18.9778 44.5964L18.8847 43.9014H16.9825C15.9317 43.9014 14.7478 43.8346 14.3621 43.7544C12.0742 43.2732 10.1188 41.4821 9.38722 39.2232L9.10788 38.3543L6.55394 38.3142L4 38.2875L4.07981 39.3836Z" fill="white"/>
<path d="M67.13 38.4479C66.6511 39.8915 66.4782 40.2791 66.1457 40.8004C65.2545 42.2039 63.6715 43.34 62.1418 43.6875C61.53 43.8346 60.5589 43.9014 59.2288 43.9014H57.2468L57.1537 44.5964C56.728 48.0049 56.156 51.0792 55.4909 53.6455C55.2648 54.4876 55.1052 55.196 55.1318 55.2094C55.1584 55.2361 56.0629 55.5435 57.167 55.9044C59.3086 56.6128 61.1442 57.3614 62.9666 58.2836C63.605 58.6044 64.1903 58.8718 64.2435 58.8718C64.4031 58.8718 66.0659 56.6396 66.8773 55.3297C69.8702 50.5445 71.626 45.1177 72.0517 39.3836L72.1315 38.2875H69.6573C67.8084 38.2875 67.1699 38.3276 67.13 38.4479Z" fill="white"/>
<path d="M50.3017 39.4903C49.6765 40.1186 50.1554 41.0943 51.0998 41.0943C51.7383 41.0943 52.1639 40.7334 52.1639 40.1854C52.1639 39.3433 50.9136 38.8755 50.3017 39.4903Z" fill="white"/>
<path d="M21.5832 45.7324C21.9822 48.7532 23.1262 54.1666 23.4454 54.5141C23.5119 54.581 24.2834 54.4874 25.321 54.2869C28.8327 53.6052 32.8631 53.124 35.2308 53.124C35.8959 53.124 36.5344 53.0839 36.6541 53.0438C36.8403 52.977 36.8669 52.4423 36.8669 48.4324V43.9012H29.112H21.3438L21.5832 45.7324Z" fill="white"/>
<path d="M39.2656 48.4324C39.2656 52.4423 39.2922 52.977 39.4785 53.0438C39.5982 53.0839 40.2367 53.124 40.9017 53.124C43.2695 53.124 47.2999 53.6052 50.8116 54.2869C51.8491 54.4874 52.6206 54.581 52.6871 54.5141C53.0064 54.1666 54.1503 48.7532 54.5494 45.7324L54.7888 43.9012H47.0206H39.2656V48.4324Z" fill="white"/>
<path d="M33.0121 55.677C30.3119 55.8909 24.5389 56.7865 24.2995 57.0271C24.1931 57.134 25.4168 60.0612 26.1883 61.585C28.8487 66.8113 32.4003 70.2464 36.0449 71.0885L36.8697 71.2756V63.4028V55.53L35.6459 55.5434C34.9675 55.5567 33.7836 55.6102 33.0121 55.677Z" fill="white"/>
<path d="M39.2656 63.4028V71.2756L40.1036 71.0885C43.735 70.2464 47.2866 66.8113 49.947 61.585C50.7185 60.0612 51.9422 57.134 51.8358 57.0271C51.7161 56.9068 49.3351 56.4657 47.0472 56.1449C44.5065 55.784 41.6599 55.53 40.1701 55.53H39.2656V63.4028Z" fill="white"/>
<path d="M19.6422 58.2569C16.8488 59.1925 13.5898 60.596 13.5898 60.8633C13.5898 61.0103 15.359 62.6811 16.636 63.7237C19.0037 65.6752 22.4621 67.7069 25.3619 68.8698C26.6256 69.3777 29.2061 70.2332 29.4589 70.2332C29.5254 70.2332 29.0997 69.7119 28.5011 69.0836C25.6945 66.1029 23.2868 62.0663 22.0498 58.2301C21.9168 57.8559 21.8103 57.5351 21.797 57.5484C21.7837 57.5484 20.8127 57.8692 19.6422 58.2569Z" fill="white"/>
<path d="M54.2298 57.8292C53.6046 59.6203 53.3652 60.2217 52.8331 61.3713C51.5162 64.1916 49.6407 66.9851 47.6853 69.0302C47.1266 69.6183 46.701 70.1262 46.7409 70.1663C46.834 70.2599 49.215 69.498 50.7713 68.8698C53.5913 67.747 57.0365 65.7287 59.4175 63.7906C60.761 62.6945 62.5434 61.0237 62.5434 60.8633C62.5434 60.596 58.6726 58.9519 56.1718 58.15C54.4958 57.6153 54.3096 57.5886 54.2298 57.8292Z" fill="white"/>
</g>
<defs>
<filter id="filter0_dd_2498_2218" x="0" y="0" width="76.1328" height="76.2756" filterUnits="userSpaceOnUse" color-interpolation-filters="sRGB">
<feFlood flood-opacity="0" result="BackgroundImageFix"/>
<feColorMatrix in="SourceAlpha" type="matrix" values="0 0 0 0 0 0 0 0 0 0 0 0 0 0 0 0 0 0 127 0" result="hardAlpha"/>
<feMorphology radius="1" operator="dilate" in="SourceAlpha" result="effect1_dropShadow_2498_2218"/>
<feOffset dy="1"/>
<feGaussianBlur stdDeviation="1.5"/>
<feColorMatrix type="matrix" values="0 0 0 0 0.301961 0 0 0 0 0.0784314 0 0 0 0 0.207843 0 0 0 0.15 0"/>
<feBlend mode="normal" in2="BackgroundImageFix" result="effect1_dropShadow_2498_2218"/>
<feColorMatrix in="SourceAlpha" type="matrix" values="0 0 0 0 0 0 0 0 0 0 0 0 0 0 0 0 0 0 127 0" result="hardAlpha"/>
<feOffset dy="1"/>
<feGaussianBlur stdDeviation="1"/>
<feColorMatrix type="matrix" values="0 0 0 0 0.3 0 0 0 0 0.0765101 0 0 0 0 0.207383 0 0 0 1 0"/>
<feBlend mode="normal" in2="effect1_dropShadow_2498_2218" result="effect2_dropShadow_2498_2218"/>
<feBlend mode="normal" in="SourceGraphic" in2="effect2_dropShadow_2498_2218" result="shape"/>
</filter>
</defs>
</svg>
