<svg width="40" height="40" viewBox="0 0 40 40" fill="none" xmlns="http://www.w3.org/2000/svg">
<path fill-rule="evenodd" clip-rule="evenodd" d="M20 0C16.0444 0 12.1776 1.17298 8.8886 3.37061C5.59962 5.56823 3.03617 8.69181 1.52242 12.3463C0.00866566 16.0009 -0.387401 20.0222 0.384303 23.9018C1.15601 27.7814 3.06082 31.3451 5.85787 34.1421C8.65492 36.9392 12.2186 38.844 16.0982 39.6157C19.9778 40.3874 23.9991 39.9913 27.6537 38.4776C31.3082 36.9638 34.4318 34.4004 36.6294 31.1114C38.827 27.8224 40 23.9556 40 20C40 14.6957 37.8929 9.60859 34.1421 5.85786C30.3914 2.10714 25.3043 0 20 0ZM12.6009 28.5714C10.9056 28.5714 9.24843 28.0687 7.83886 27.1269C6.4293 26.185 5.33068 24.8464 4.68193 23.2801C4.03318 21.7139 3.86343 19.9905 4.19416 18.3278C4.52489 16.6651 5.34124 15.1378 6.53998 13.9391C7.73871 12.7403 9.266 11.924 10.9287 11.5933C12.5914 11.2625 14.3148 11.4323 15.881 12.081C17.4473 12.7298 18.7859 13.8284 19.7278 15.238C20.6696 16.6475 21.1723 18.3047 21.1723 20C21.1723 22.2733 20.2693 24.4535 18.6618 26.0609C17.0544 27.6684 14.8742 28.5714 12.6009 28.5714ZM27.0099 28.5714C24.5748 28.5714 22.6009 24.7339 22.6009 20C22.6009 15.2661 24.5748 11.4286 27.0099 11.4286C29.4449 11.4286 31.4189 15.2661 31.4189 20C31.4189 24.7339 29.4449 28.5714 27.0099 28.5714ZM34.4073 28.5714C33.5439 28.5714 32.844 24.7339 32.844 20C32.844 15.2661 33.5439 11.4286 34.4073 11.4286C35.2706 11.4286 35.9705 15.2661 35.9705 20C35.9705 24.7339 35.2706 28.5714 34.4073 28.5714Z" fill="white"/>
</svg>
