<svg width="100" height="45" viewBox="0 0 100 45" fill="none" xmlns="http://www.w3.org/2000/svg">
<path d="M37.7645 18.36C36.0445 18.36 34.5845 17.98 33.3845 17.22C32.1845 16.46 31.2685 15.404 30.6365 14.052C30.0125 12.7 29.7005 11.136 29.7005 9.36C29.7005 7.584 30.0125 6.02 30.6365 4.668C31.2685 3.316 32.1845 2.26 33.3845 1.5C34.5845 0.739999 36.0445 0.36 37.7645 0.36C39.4925 0.36 40.9565 0.739999 42.1565 1.5C43.3565 2.26 44.2685 3.316 44.8925 4.668C45.5165 6.02 45.8285 7.584 45.8285 9.36C45.8285 11.136 45.5165 12.7 44.8925 14.052C44.2685 15.404 43.3565 16.46 42.1565 17.22C40.9565 17.98 39.4925 18.36 37.7645 18.36ZM37.7645 16.32C39.0525 16.328 40.1245 16.04 40.9805 15.456C41.8445 14.864 42.4885 14.044 42.9125 12.996C43.3445 11.948 43.5605 10.736 43.5605 9.36C43.5605 7.976 43.3445 6.764 42.9125 5.724C42.4885 4.684 41.8445 3.872 40.9805 3.288C40.1245 2.704 39.0525 2.408 37.7645 2.4C36.4765 2.392 35.4045 2.68 34.5485 3.264C33.7005 3.848 33.0605 4.664 32.6285 5.712C32.1965 6.76 31.9765 7.976 31.9685 9.36C31.9605 10.736 32.1725 11.944 32.6045 12.984C33.0365 14.024 33.6805 14.84 34.5365 15.432C35.4005 16.016 36.4765 16.312 37.7645 16.32ZM53.1586 18.336C52.3266 18.336 51.6106 18.204 51.0106 17.94C50.4186 17.676 49.9266 17.324 49.5346 16.884C49.1426 16.444 48.8346 15.956 48.6106 15.42C48.3866 14.884 48.2266 14.336 48.1306 13.776C48.0426 13.216 47.9986 12.692 47.9986 12.204V5.04H50.1586V11.532C50.1586 12.14 50.2146 12.728 50.3266 13.296C50.4386 13.864 50.6266 14.376 50.8906 14.832C51.1626 15.288 51.5226 15.648 51.9706 15.912C52.4266 16.176 52.9946 16.308 53.6746 16.308C54.2106 16.308 54.6986 16.216 55.1386 16.032C55.5786 15.848 55.9546 15.576 56.2666 15.216C56.5786 14.848 56.8186 14.384 56.9866 13.824C57.1546 13.264 57.2386 12.612 57.2386 11.868L58.6426 12.3C58.6426 13.548 58.4146 14.624 57.9586 15.528C57.5106 16.432 56.8746 17.128 56.0506 17.616C55.2346 18.096 54.2706 18.336 53.1586 18.336ZM57.4786 18V14.532H57.2386V5.04H59.3866V18H57.4786ZM62.7464 18V5.04H64.6544V8.172L64.3424 7.764C64.4944 7.364 64.6904 6.996 64.9304 6.66C65.1784 6.324 65.4544 6.048 65.7584 5.832C66.0944 5.56 66.4744 5.352 66.8984 5.208C67.3224 5.064 67.7544 4.98 68.1944 4.956C68.6344 4.924 69.0464 4.952 69.4304 5.04V7.044C68.9824 6.924 68.4904 6.892 67.9544 6.948C67.4184 7.004 66.9224 7.2 66.4664 7.536C66.0504 7.832 65.7264 8.192 65.4944 8.616C65.2704 9.04 65.1144 9.5 65.0264 9.996C64.9384 10.484 64.8944 10.984 64.8944 11.496V18H62.7464ZM0.144844 44V26.72H7.44084C7.60884 26.72 7.83284 26.728 8.11284 26.744C8.40084 26.752 8.65684 26.776 8.88084 26.816C9.91284 26.976 10.7568 27.316 11.4128 27.836C12.0768 28.356 12.5648 29.012 12.8768 29.804C13.1888 30.588 13.3448 31.464 13.3448 32.432C13.3448 33.4 13.1848 34.28 12.8648 35.072C12.5528 35.856 12.0648 36.508 11.4008 37.028C10.7448 37.548 9.90484 37.888 8.88084 38.048C8.65684 38.08 8.40084 38.104 8.11284 38.12C7.82484 38.136 7.60084 38.144 7.44084 38.144H3.40884V44H0.144844ZM3.40884 35.096H7.29684C7.46484 35.096 7.64884 35.088 7.84884 35.072C8.04884 35.056 8.23284 35.024 8.40084 34.976C8.84084 34.856 9.18084 34.656 9.42084 34.376C9.66084 34.088 9.82484 33.772 9.91284 33.428C10.0088 33.076 10.0568 32.744 10.0568 32.432C10.0568 32.12 10.0088 31.792 9.91284 31.448C9.82484 31.096 9.66084 30.78 9.42084 30.5C9.18084 30.212 8.84084 30.008 8.40084 29.888C8.23284 29.84 8.04884 29.808 7.84884 29.792C7.64884 29.776 7.46484 29.768 7.29684 29.768H3.40884V35.096ZM19.0964 44.36C18.1684 44.36 17.3804 44.184 16.7324 43.832C16.0924 43.472 15.6044 42.996 15.2684 42.404C14.9404 41.804 14.7764 41.144 14.7764 40.424C14.7764 39.824 14.8684 39.276 15.0524 38.78C15.2364 38.284 15.5324 37.848 15.9404 37.472C16.3564 37.088 16.9124 36.768 17.6084 36.512C18.0884 36.336 18.6604 36.18 19.3244 36.044C19.9884 35.908 20.7404 35.78 21.5804 35.66C22.4204 35.532 23.3444 35.392 24.3524 35.24L23.1764 35.888C23.1764 35.12 22.9924 34.556 22.6244 34.196C22.2564 33.836 21.6404 33.656 20.7764 33.656C20.2964 33.656 19.7964 33.772 19.2764 34.004C18.7564 34.236 18.3924 34.648 18.1844 35.24L15.2324 34.304C15.5604 33.232 16.1764 32.36 17.0804 31.688C17.9844 31.016 19.2164 30.68 20.7764 30.68C21.9204 30.68 22.9364 30.856 23.8244 31.208C24.7124 31.56 25.3844 32.168 25.8404 33.032C26.0964 33.512 26.2484 33.992 26.2964 34.472C26.3444 34.952 26.3684 35.488 26.3684 36.08V44H23.5124V41.336L23.9204 41.888C23.2884 42.76 22.6044 43.392 21.8684 43.784C21.1404 44.168 20.2164 44.36 19.0964 44.36ZM19.7924 41.792C20.3924 41.792 20.8964 41.688 21.3044 41.48C21.7204 41.264 22.0484 41.02 22.2884 40.748C22.5364 40.476 22.7044 40.248 22.7924 40.064C22.9604 39.712 23.0564 39.304 23.0804 38.84C23.1124 38.368 23.1284 37.976 23.1284 37.664L24.0884 37.904C23.1204 38.064 22.3364 38.2 21.7364 38.312C21.1364 38.416 20.6524 38.512 20.2844 38.6C19.9164 38.688 19.5924 38.784 19.3124 38.888C18.9924 39.016 18.7324 39.156 18.5324 39.308C18.3404 39.452 18.1964 39.612 18.1004 39.788C18.0124 39.964 17.9684 40.16 17.9684 40.376C17.9684 40.672 18.0404 40.928 18.1844 41.144C18.3364 41.352 18.5484 41.512 18.8204 41.624C19.0924 41.736 19.4164 41.792 19.7924 41.792ZM29.4886 44V31.04H32.3686V34.208L32.0566 33.8C32.2246 33.352 32.4486 32.944 32.7286 32.576C33.0086 32.208 33.3526 31.904 33.7606 31.664C34.0726 31.472 34.4126 31.324 34.7806 31.22C35.1486 31.108 35.5286 31.04 35.9206 31.016C36.3126 30.984 36.7046 30.992 37.0966 31.04V34.088C36.7366 33.976 36.3166 33.94 35.8366 33.98C35.3646 34.012 34.9366 34.12 34.5526 34.304C34.1686 34.48 33.8446 34.716 33.5806 35.012C33.3166 35.3 33.1166 35.644 32.9806 36.044C32.8446 36.436 32.7766 36.88 32.7766 37.376V44H29.4886ZM47.1552 44C46.2592 44.168 45.3792 44.24 44.5152 44.216C43.6592 44.2 42.8912 44.052 42.2112 43.772C41.5392 43.484 41.0272 43.024 40.6752 42.392C40.3552 41.8 40.1872 41.2 40.1712 40.592C40.1552 39.976 40.1472 39.28 40.1472 38.504V27.44H43.4112V38.312C43.4112 38.816 43.4152 39.272 43.4232 39.68C43.4392 40.08 43.5232 40.4 43.6752 40.64C43.9632 41.096 44.4232 41.344 45.0552 41.384C45.6872 41.424 46.3872 41.392 47.1552 41.288V44ZM37.9392 33.56V31.04H47.1552V33.56H37.9392ZM58.8753 44V37.88C58.8753 37.584 58.8593 37.208 58.8273 36.752C58.7953 36.288 58.6953 35.824 58.5273 35.36C58.3593 34.896 58.0833 34.508 57.6993 34.196C57.3233 33.884 56.7873 33.728 56.0913 33.728C55.8113 33.728 55.5113 33.772 55.1913 33.86C54.8713 33.948 54.5713 34.12 54.2913 34.376C54.0113 34.624 53.7793 34.992 53.5953 35.48C53.4193 35.968 53.3313 36.616 53.3313 37.424L51.4593 36.536C51.4593 35.512 51.6673 34.552 52.0833 33.656C52.4993 32.76 53.1233 32.036 53.9553 31.484C54.7953 30.932 55.8513 30.656 57.1233 30.656C58.1393 30.656 58.9673 30.828 59.6073 31.172C60.2473 31.516 60.7433 31.952 61.0953 32.48C61.4553 33.008 61.7113 33.56 61.8633 34.136C62.0153 34.704 62.1073 35.224 62.1393 35.696C62.1713 36.168 62.1873 36.512 62.1873 36.728V44H58.8753ZM50.0193 44V31.04H52.9233V35.336H53.3313V44H50.0193ZM71.0907 44.36C69.7627 44.36 68.5907 44.076 67.5747 43.508C66.5667 42.932 65.7747 42.144 65.1987 41.144C64.6307 40.136 64.3467 38.984 64.3467 37.688C64.3467 36.272 64.6267 35.04 65.1867 33.992C65.7467 32.944 66.5187 32.132 67.5027 31.556C68.4867 30.972 69.6187 30.68 70.8987 30.68C72.2587 30.68 73.4147 31 74.3667 31.64C75.3187 32.28 76.0227 33.18 76.4787 34.34C76.9347 35.5 77.0947 36.864 76.9587 38.432H73.7307V37.232C73.7307 35.912 73.5187 34.964 73.0947 34.388C72.6787 33.804 71.9947 33.512 71.0427 33.512C69.9307 33.512 69.1107 33.852 68.5827 34.532C68.0627 35.204 67.8027 36.2 67.8027 37.52C67.8027 38.728 68.0627 39.664 68.5827 40.328C69.1107 40.984 69.8827 41.312 70.8987 41.312C71.5387 41.312 72.0867 41.172 72.5427 40.892C72.9987 40.612 73.3467 40.208 73.5867 39.68L76.8507 40.616C76.3627 41.8 75.5907 42.72 74.5347 43.376C73.4867 44.032 72.3387 44.36 71.0907 44.36ZM66.7947 38.432V36.008H75.3867V38.432H66.7947ZM79.6683 44V31.04H82.5483V34.208L82.2363 33.8C82.4043 33.352 82.6283 32.944 82.9083 32.576C83.1883 32.208 83.5323 31.904 83.9403 31.664C84.2523 31.472 84.5923 31.324 84.9603 31.22C85.3283 31.108 85.7083 31.04 86.1003 31.016C86.4923 30.984 86.8843 30.992 87.2763 31.04V34.088C86.9163 33.976 86.4963 33.94 86.0163 33.98C85.5443 34.012 85.1163 34.12 84.7323 34.304C84.3483 34.48 84.0243 34.716 83.7603 35.012C83.4963 35.3 83.2963 35.644 83.1603 36.044C83.0243 36.436 82.9563 36.88 82.9563 37.376V44H79.6683ZM94.1542 44.36C92.5222 44.36 91.2022 43.992 90.1942 43.256C89.1942 42.512 88.5862 41.464 88.3702 40.112L91.7062 39.608C91.8422 40.216 92.1422 40.692 92.6062 41.036C93.0782 41.38 93.6742 41.552 94.3942 41.552C94.9862 41.552 95.4422 41.44 95.7622 41.216C96.0822 40.984 96.2422 40.664 96.2422 40.256C96.2422 40 96.1782 39.796 96.0502 39.644C95.9222 39.484 95.6342 39.328 95.1862 39.176C94.7462 39.024 94.0582 38.824 93.1222 38.576C92.0662 38.304 91.2222 38 90.5902 37.664C89.9582 37.328 89.5022 36.928 89.2222 36.464C88.9422 35.992 88.8022 35.424 88.8022 34.76C88.8022 33.928 89.0142 33.208 89.4382 32.6C89.8622 31.984 90.4582 31.512 91.2262 31.184C92.0022 30.848 92.9142 30.68 93.9622 30.68C94.9782 30.68 95.8782 30.836 96.6622 31.148C97.4462 31.46 98.0782 31.904 98.5582 32.48C99.0462 33.056 99.3462 33.736 99.4582 34.52L96.1222 35.12C96.0662 34.64 95.8582 34.26 95.4982 33.98C95.1382 33.7 94.6502 33.536 94.0342 33.488C93.4342 33.448 92.9502 33.528 92.5822 33.728C92.2222 33.928 92.0422 34.216 92.0422 34.592C92.0422 34.816 92.1182 35.004 92.2702 35.156C92.4302 35.308 92.7542 35.464 93.2422 35.624C93.7382 35.784 94.4902 35.992 95.4982 36.248C96.4822 36.504 97.2702 36.804 97.8622 37.148C98.4622 37.484 98.8982 37.892 99.1702 38.372C99.4422 38.844 99.5782 39.416 99.5782 40.088C99.5782 41.416 99.0982 42.46 98.1382 43.22C97.1782 43.98 95.8502 44.36 94.1542 44.36Z" fill="white"/>
</svg>
