<svg width="182" height="52" viewBox="0 0 182 52" fill="none" xmlns="http://www.w3.org/2000/svg">
<path d="M29.9107 2.80422C26.872 1.04979 23.128 1.04979 20.0893 2.80422L7.36722 10.1493C4.32846 11.9037 2.45651 15.1461 2.45651 18.6549V33.3451C2.45651 36.8539 4.32846 40.0963 7.36722 41.8507L20.0893 49.1958C23.128 50.9502 26.872 50.9502 29.9107 49.1958L42.6328 41.8507C45.6715 40.0963 47.5435 36.8539 47.5435 33.3451V18.6549C47.5435 15.1461 45.6715 11.9037 42.6328 10.1493L29.9107 2.80422Z" fill="#0C1142" stroke="url(#paint0_linear_2498_1848)" stroke-width="1.78571"/>
<mask id="mask0_2498_1848" style="mask-type:alpha" maskUnits="userSpaceOnUse" x="3" y="2" width="44" height="48">
<path d="M20.5357 3.57746C23.2982 1.98252 26.7018 1.98252 29.4643 3.57746L42.1863 10.9225C44.9489 12.5175 46.6506 15.465 46.6506 18.6549V33.3451C46.6506 36.535 44.9489 39.4825 42.1863 41.0775L29.4643 48.4225C26.7018 50.0175 23.2982 50.0175 20.5357 48.4225L7.81365 41.0775C5.05114 39.4825 3.34937 36.535 3.34937 33.3451V18.6549C3.34937 15.465 5.05114 12.5175 7.81365 10.9225L20.5357 3.57746Z" fill="#0C1142"/>
</mask>
<g mask="url(#mask0_2498_1848)">
<path fill-rule="evenodd" clip-rule="evenodd" d="M18.5173 52.7451L16.0487 52.9001C15.4293 52.9413 14.8171 52.7481 14.3335 52.3588C13.85 51.9696 13.5305 51.4127 13.4385 50.7989L8.84058 20.3567C8.7889 20.0166 8.80871 19.6695 8.89876 19.3376C8.98881 19.0056 9.14711 18.696 9.36355 18.4287C9.57999 18.1614 9.84981 17.9421 10.1558 17.7849C10.4617 17.6278 10.7971 17.5361 11.1405 17.5159L13.6091 17.3609C14.2285 17.3197 14.8407 17.5129 15.3242 17.9022C15.8078 18.2915 16.1273 18.8483 16.2193 19.4622L20.1197 45.2867L21.4115 20.6383C21.4836 19.2632 22.6567 18.2069 24.0318 18.279L26.2548 18.3955C27.6299 18.4675 28.6862 19.6407 28.6141 21.0158L27.4947 42.3753L33.2901 19.5005C33.4493 18.8749 33.837 18.3317 34.3768 17.9778C34.9166 17.6239 35.5694 17.485 36.2066 17.5885L38.4136 17.9469C38.7672 18.0036 39.1051 18.1333 39.4057 18.3278C39.7063 18.5223 39.9631 18.7774 40.1597 19.0766C40.3563 19.3759 40.4884 19.7129 40.5475 20.066C40.6067 20.4192 40.5916 20.7808 40.5032 21.1278L32.9954 50.7603C32.8359 51.3871 32.4475 51.9315 31.9066 52.2862C31.3657 52.6409 30.7116 52.7801 30.0732 52.6764L27.8661 52.318C27.5131 52.2607 27.1758 52.1305 26.8758 51.9358C26.812 51.8944 26.7501 51.8502 26.6904 51.8034C26.2259 52.5484 25.3813 53.0251 24.4425 52.9759L22.2195 52.8594C21.4263 52.8179 20.7392 52.4099 20.3135 51.8082L20.2942 51.8324C20.0778 52.0997 19.8079 52.3189 19.502 52.4761C19.196 52.6333 18.8606 52.7249 18.5173 52.7451Z" fill="white"/>
</g>
<path d="M28.9095 16.9861L28.7192 16.9325L28.5515 17.0374L27.4818 17.7068L26.9765 16.8175L28.2916 15.9779L28.4815 15.8567L28.4968 15.6319C28.5069 15.4822 28.5505 15.3367 28.6243 15.206C28.6981 15.0754 28.8003 14.963 28.9232 14.877C29.0462 14.791 29.1869 14.7337 29.3349 14.7093C29.483 14.6849 29.6346 14.6939 29.7787 14.7358L30.2525 14.8736L30.3423 14.3884C30.4194 13.9715 30.5672 13.7317 30.7295 13.618C30.874 13.5167 31.1252 13.4501 31.5836 13.6055L32.1734 13.8055V13.1827C32.1734 12.8303 32.3109 12.5748 32.5019 12.4479C32.6837 12.3271 33.0214 12.2527 33.5771 12.492L34.9074 13.0649L34.1411 11.8592C34.1432 11.8477 34.1492 11.8269 34.1654 11.7942C34.2108 11.7024 34.311 11.5827 34.4616 11.4765C34.7774 11.2538 35.1296 11.205 35.3716 11.35L35.5893 11.4804L35.8128 11.3599L37.134 10.6477L37.591 11.3861C37.4177 11.5188 37.2482 11.6586 37.0866 11.7919L37.0673 11.8078C36.7833 12.0421 36.5229 12.2556 36.2688 12.4215L36.1028 12.5298L36.0718 12.7256C35.9988 13.1872 35.8242 13.4187 35.6223 13.5399C35.4033 13.6713 35.0616 13.7282 34.5551 13.6488L33.8673 13.5409L34.0563 14.211C34.0951 14.3484 34.0411 14.5378 33.8255 14.6907C33.6177 14.838 33.3142 14.9 33.0092 14.7767L32.5024 14.5719L32.4029 15.1094C32.3249 15.5313 32.1798 15.7446 32.0241 15.8341C31.8761 15.9192 31.577 15.972 30.9884 15.7241L30.4516 15.4979L30.3728 16.0751C30.2897 16.6837 30.1302 16.9203 29.9805 17.0153C29.8262 17.1133 29.5278 17.1605 28.9095 16.9861ZM34.1406 11.8707C34.1403 11.8708 34.14 11.869 34.1403 11.8651C34.141 11.8686 34.1408 11.8705 34.1406 11.8707Z" fill="white" stroke="white" stroke-width="0.892857"/>
<path d="M20.7092 15.3869L20.7516 15.6364L20.9875 15.7281L22.1105 16.1649L21.917 16.7879C21.747 16.7517 21.5763 16.7206 21.4138 16.691L21.4016 16.6888C21.087 16.6315 20.802 16.5791 20.5505 16.5052L20.363 16.4502L20.1953 16.5506C19.8615 16.7505 19.6296 16.7576 19.4574 16.6982C19.2672 16.6326 19.0484 16.4511 18.8237 16.0765L18.4674 15.4826L18.0736 16.0524C18.0215 16.1278 17.8921 16.1959 17.6858 16.1424C17.4895 16.0916 17.2976 15.9396 17.2177 15.692L17.051 15.1749L16.5761 15.4388C16.2628 15.6128 16.0626 15.625 15.9414 15.58C15.8283 15.538 15.6353 15.3897 15.4743 14.867L15.3026 14.3097L14.8094 14.6208C14.3633 14.9022 14.1376 14.9157 14.018 14.8777C13.8937 14.8383 13.7057 14.6878 13.4807 14.181L13.3982 13.9952L13.2039 13.9354L12.2209 13.633L12.4884 12.9184L13.774 13.2929L13.9819 13.3535L14.1582 13.2277C14.256 13.1579 14.3682 13.1108 14.4865 13.0898C14.6049 13.0688 14.7264 13.0745 14.8423 13.1064C14.9582 13.1383 15.0655 13.1956 15.1564 13.2742C15.2473 13.3528 15.3196 13.4507 15.3679 13.5608L15.5655 14.0108L15.9945 13.7709C16.3003 13.6 16.5204 13.5738 16.6628 13.6126C16.7854 13.646 16.9577 13.7575 17.1063 14.1364L17.3325 14.7129L17.8079 14.3161C18.0299 14.1308 18.2556 14.0891 18.4232 14.1386C18.5805 14.185 18.8069 14.3484 18.9547 14.8362L19.3778 16.2325L19.7937 14.8866C19.7981 14.8853 19.8033 14.8839 19.8093 14.8826C19.8825 14.8655 20.0072 14.865 20.1556 14.9052C20.4719 14.9907 20.6752 15.1872 20.7092 15.3869ZM19.7697 14.8956C19.7696 14.8956 19.7706 14.8949 19.7729 14.8939C19.771 14.8951 19.7698 14.8957 19.7697 14.8956Z" fill="white" stroke="white" stroke-width="0.892857"/>
<g filter="url(#filter0_dd_2498_1848)">
<path d="M60.9062 30.7744C60.9209 34.9492 64.2754 37.3662 69.9736 37.3662C75.5547 37.3662 79.3633 34.5977 79.3633 30.1445C79.3633 27.0977 77.7227 25.5156 73.9287 24.417L71.6143 23.7432C69.915 23.2451 69.3291 22.6592 69.3291 21.8096C69.3291 20.8135 70.3838 20.0811 72.0098 20.0811C73.7676 20.0811 74.9541 20.916 74.998 22.1758H80.667C80.6377 17.9863 77.3125 15.4961 71.8633 15.4961C66.7363 15.4961 63.0156 18.3086 63.0156 22.6152C63.0156 25.501 64.8906 27.4053 68.4209 28.4746L70.6328 29.1484C72.625 29.7637 73.0205 30.2178 73.0205 30.9941C73.0205 32.0488 71.8926 32.7666 70.0908 32.7666C68.3477 32.7666 66.9561 31.9316 66.7803 30.7744H60.9062Z" fill="white"/>
<path d="M95.1689 24.9736H95.2861L95.96 37H101.761L111.692 15.8623H105.306L100.179 29.0312H100.062L99.5635 15.8623H94.7588L88.8115 29.0312H88.6943L89.0459 15.8623H82.6592L83.626 37H89.5L95.1689 24.9736Z" fill="white"/>
<path d="M121.858 20.4473C123.997 20.4473 125.403 22.1611 125.403 24.8564C125.403 29.0459 122.972 32.415 120.13 32.415C117.991 32.415 116.6 30.6719 116.6 27.9912C116.6 23.8311 119.017 20.4473 121.858 20.4473ZM119.939 37.3662C126.414 37.3662 131.702 32.2686 131.702 24.4902C131.702 19.3779 128.201 15.4961 122.005 15.4961C115.516 15.4961 110.301 20.623 110.301 28.3721C110.301 33.499 113.904 37.3662 119.939 37.3662Z" fill="white"/>
<path d="M145.091 20.4473C147.229 20.4473 148.636 22.1611 148.636 24.8564C148.636 29.0459 146.204 32.415 143.362 32.415C141.224 32.415 139.832 30.6719 139.832 27.9912C139.832 23.8311 142.249 20.4473 145.091 20.4473ZM143.172 37.3662C149.646 37.3662 154.935 32.2686 154.935 24.4902C154.935 19.3779 151.434 15.4961 145.237 15.4961C138.748 15.4961 133.533 20.623 133.533 28.3721C133.533 33.499 137.137 37.3662 143.172 37.3662Z" fill="white"/>
<path d="M159.681 15.8623L155.213 37H161.409L162.64 31.2285H165.643C171.707 31.2285 175.486 27.8301 175.486 22.4395C175.486 18.499 172.688 15.8623 167.693 15.8623H159.681ZM164.896 20.5498H166.521C168.294 20.5498 169.261 21.3262 169.261 22.9961C169.261 25.0615 167.854 26.6289 165.687 26.6289H163.592L164.896 20.5498Z" fill="white"/>
</g>
<defs>
<filter id="filter0_dd_2498_1848" x="54.9062" y="11.4961" width="126.578" height="33.8701" filterUnits="userSpaceOnUse" color-interpolation-filters="sRGB">
<feFlood flood-opacity="0" result="BackgroundImageFix"/>
<feColorMatrix in="SourceAlpha" type="matrix" values="0 0 0 0 0 0 0 0 0 0 0 0 0 0 0 0 0 0 127 0" result="hardAlpha"/>
<feOffset dy="2"/>
<feGaussianBlur stdDeviation="3"/>
<feComposite in2="hardAlpha" operator="out"/>
<feColorMatrix type="matrix" values="0 0 0 0 0 0 0 0 0 0 0 0 0 0 0 0 0 0 0.15 0"/>
<feBlend mode="normal" in2="BackgroundImageFix" result="effect1_dropShadow_2498_1848"/>
<feColorMatrix in="SourceAlpha" type="matrix" values="0 0 0 0 0 0 0 0 0 0 0 0 0 0 0 0 0 0 127 0" result="hardAlpha"/>
<feOffset dy="1"/>
<feGaussianBlur stdDeviation="1"/>
<feComposite in2="hardAlpha" operator="out"/>
<feColorMatrix type="matrix" values="0 0 0 0 1 0 0 0 0 1 0 0 0 0 1 0 0 0 0.3 0"/>
<feBlend mode="normal" in2="effect1_dropShadow_2498_1848" result="effect2_dropShadow_2498_1848"/>
<feBlend mode="normal" in="SourceGraphic" in2="effect2_dropShadow_2498_1848" result="shape"/>
</filter>
<linearGradient id="paint0_linear_2498_1848" x1="11" y1="20" x2="32.349" y2="30.622" gradientUnits="userSpaceOnUse">
<stop stop-color="#6DDBF5"/>
<stop offset="1" stop-color="#603DDE"/>
</linearGradient>
</defs>
</svg>
